<?xml version="1.0" encoding="UTF-8"?>
<!-- Generator: Adobe Illustrator 16.0.0, SVG Export Plug-In . SVG Version: 6.00 Build 0)  -->
<!DOCTYPE svg PUBLIC "-//W3C//DTD SVG 1.1//EN" "http://www.w3.org/Graphics/SVG/1.1/DTD/svg11.dtd">
<svg version="1.1" xmlns="http://www.w3.org/2000/svg" xmlns:xlink="http://www.w3.org/1999/xlink" x="0px" y="0px" width="424px" height="397.494px" viewBox="21.88 -102.5 424 397.494" enable-background="new 21.88 -102.5 424 397.494" xml:space="preserve">
<g id="Isolation_Mode" display="none">
	<g display="inline">
		<path fill="#FFFFFF" d="M309.963,197.25c0,4.569-3.616,8.311-8.049,8.311h-72.546h-64.499H92.304    c-4.433,0-8.036-3.741-8.036-8.311V31.547c0-4.569,3.604-8.298,8.036-8.298h209.61c4.433,0,8.049,3.729,8.049,8.298V197.25z"/>
		<path fill="#002231" d="M306.568,176.937c0,4.296-3.514,7.832-7.821,7.832H95.088c-4.319,0-7.82-3.536-7.82-7.832V35.197    c0-4.319,3.501-7.844,7.82-7.844h203.658c4.308,0,7.821,3.525,7.821,7.844V176.937z M298.746,11.688H95.088    c-12.991,0-23.491,10.505-23.491,23.509v156.664c0,12.939,10.476,23.439,23.421,23.485h78.399v9.514l-48.902,6.355    c-3.489,0.875-5.924,3.992-5.924,7.604c0,4.331,3.502,7.832,7.82,7.832h141c4.33,0,7.833-3.501,7.833-7.832    c0-3.612-2.435-6.729-5.924-7.604l-48.903-6.355v-9.514h78.388c12.969-0.046,23.427-10.546,23.427-23.485V35.197    C322.232,22.193,311.715,11.688,298.746,11.688"/>
	</g>
	<rect x="236.22" y="94.5" display="inline" fill="#28A3DC" width="60.681" height="28.09"/>
	<path display="inline" fill="#FFFFFF" d="M122.228,186.058v48.412c0,1.289-1.079,2.375-2.387,2.375H60.275   c-1.302,0-2.393-1.086-2.393-2.375v-48.412v-48.383c0-1.313,1.091-2.393,2.393-2.393h59.566c1.308,0,2.387,1.08,2.387,2.393   V186.058z"/>
	<g display="inline">
		<path fill="#1A6F9F" d="M130.674,77.002c-9.973,0-18.048-8.27-18.048-18.426c0-10.188,8.075-18.457,18.048-18.457    c9.976,0,18.046,8.27,18.046,18.457C148.72,68.735,140.649,77.002,130.674,77.002 M95.785,35.713v49.715h79.438    c0.002-0.475,0.165-1.018,0.548-1.6l5.572-8.455c1.194-1.812,3.308-2.086,4.688-0.594c1.373,1.491,3.487,1.221,4.688-0.584    l5.053-7.642c1.198-1.812,3.664-2.356,5.477-1.211l0.892,0.568c1.812,1.15,4.461,0.764,5.896-0.857l4.854-5.494    c1.438-1.614,3.141-1.233,3.787,0.859l4.415,14.307c0.021,0.021,0.039,0.033,0.057,0.054c1.375,1.491,3.492,1.221,4.689-0.584    l5.052-7.642c1.202-1.812,3.667-2.356,5.479-1.211l0.889,0.568c1.809,1.149,4.465,0.764,5.898-0.857l4.854-5.494    c1.436-1.615,3.139-1.233,3.785,0.859l7.063,22.887c0.242,0.785,0.225,1.516-0.002,2.119h39.195V35.71L95.785,35.713    L95.785,35.713z"/>
	</g>
	<rect x="95.785" y="94.5" display="inline" fill="#8DD7F7" width="60.679" height="29.103"/>
	<rect x="166.41" y="94.5" display="inline" fill="#47A7C9" width="60.844" height="29.103"/>
	<g display="inline">
		<path fill="#47A7C9" d="M227.252,129.083c0-0.019,0.004-0.036,0.004-0.054h-59.847v1.922h59.843V129.083z"/>
		<rect x="167.409" y="141.438" fill="#47A7C9" width="59.843" height="1.924"/>
		<rect x="167.412" y="135.247" fill="#47A7C9" width="59.84" height="1.924"/>
		<rect x="167.409" y="161.534" fill="#47A7C9" width="43.248" height="1.922"/>
		<rect x="167.41" y="155.19" fill="#47A7C9" width="35.353" height="1.924"/>
	</g>
	<g display="inline">
		<path fill="#77BDCE" d="M126.538,156.079c-0.03,0.641-0.074,1.281-0.125,1.922h13.389v-1.922H126.538z"/>
		<path fill="#77BDCE" d="M126.04,161.534c-0.085,0.645-0.18,1.285-0.28,1.922h3.011v-1.922H126.04z"/>
		<path fill="#77BDCE" d="M124.505,141.438c0.254,0.628,0.478,1.271,0.681,1.924h31.277v-1.924H124.505z"/>
		<path fill="#77BDCE" d="M107.288,129.026c0.022,0.467-0.012,0.935-0.102,1.39c0.628,0.161,1.25,0.334,1.862,0.532h47.415v-1.922    H107.288z"/>
		<path fill="#77BDCE" d="M120.65,135.246c0.562,0.615,1.079,1.256,1.549,1.924h34.264v-1.924H120.65z"/>
	</g>
	<g display="inline">
		<path fill="#002231" d="M122.228,186.058v37.304c0,1.313-1.079,2.375-2.387,2.375H60.275c-1.302,0-2.393-1.062-2.393-2.375    v-37.304v-47.093c0-1.313,1.091-2.393,2.393-2.393h59.566c1.308,0,2.387,1.08,2.387,2.393V186.058z M60.275,118.59    c-6.875,0-12.478,5.586-12.478,12.484V234.47c0,6.881,5.603,12.46,12.478,12.46h59.566c6.875,0,12.495-5.579,12.495-12.46V131.074    c0-6.898-5.62-12.484-12.495-12.484"/>
	</g>
	<path display="inline" fill="#FFFFFF" d="M90.073,242.986c3.128,0,5.666-2.532,5.666-5.688c0-3.128-2.537-5.66-5.666-5.66   c-3.142,0-5.679,2.532-5.679,5.66C84.394,240.454,86.932,242.986,90.073,242.986"/>
	<g display="inline">
		<g>
			<path fill="#1A6F9F" d="M76.231,158.431c-3.562,0-6.451-3.07-6.451-6.848c0-3.791,2.889-6.861,6.451-6.861     c3.566,0,6.453,3.07,6.453,6.861C82.683,155.36,79.797,158.431,76.231,158.431 M61.961,141.486v29.851h29.924l2.08-3.146     c0.521-0.789,1.438-0.906,2.031-0.264c0.6,0.646,1.517,0.529,2.038-0.254l2.188-3.309c0.522-0.793,1.591-1.029,2.378-0.531     l0.389,0.248c0.786,0.498,1.936,0.332,2.559-0.371l2.106-2.383c0.62-0.705,1.358-0.545,1.639,0.373l2.978,9.637h5.521v-29.851     H61.961L61.961,141.486z"/>
		</g>
		<rect x="62.002" y="215.464" fill="#8DD7F7" width="24.766" height="8.412"/>
		<rect x="89.621" y="215.403" fill="#8DD7F7" width="28.551" height="1.588"/>
		<rect x="89.621" y="218.118" fill="#8DD7F7" width="28.551" height="1.586"/>
		<rect x="89.621" y="220.823" fill="#8DD7F7" width="28.551" height="1.584"/>
		<rect x="62.002" y="174.954" fill="#28A3DC" width="24.766" height="15.795"/>
		<rect x="89.621" y="174.89" fill="#28A3DC" width="28.551" height="1.584"/>
		<rect x="89.621" y="177.603" fill="#28A3DC" width="28.551" height="1.59"/>
		<rect x="89.621" y="180.312" fill="#28A3DC" width="28.551" height="1.582"/>
		<rect x="89.621" y="186.313" fill="#28A3DC" width="15.771" height="1.584"/>
		<rect x="89.621" y="189.083" fill="#28A3DC" width="19.292" height="1.588"/>
		<rect x="62.002" y="195.11" fill="#47A7C9" width="24.766" height="15.803"/>
		<rect x="89.621" y="195.052" fill="#47A7C9" width="28.551" height="1.582"/>
		<rect x="89.621" y="197.767" fill="#47A7C9" width="28.551" height="1.582"/>
		<rect x="89.621" y="200.468" fill="#47A7C9" width="28.551" height="1.584"/>
		<rect x="89.621" y="206.474" fill="#1A6F9F" width="15.771" height="1.582"/>
		<rect x="89.621" y="209.243" fill="#1A6F9F" width="19.292" height="1.582"/>
	</g>
	<path display="inline" fill="#FFFFFF" d="M323.242,235.643H247.16c-2.073,0-3.765-1.844-3.765-4.071l-0.018-101.293   c0-2.228,1.709-4.032,3.782-4.032h76.07h76.075c2.09,0,3.794,1.805,3.794,4.032v101.293c0,2.228-1.704,4.071-3.794,4.071H323.242z"/>
	<path display="inline" fill="#002231" d="M323.265,231.202h-66.302c-2.061,0-3.752-1.705-3.752-3.765l-0.018-93.673   c0-2.037,1.709-3.729,3.77-3.729h66.261h68.239c2.09,0,3.794,1.692,3.794,3.729v93.673c0,2.06-1.704,3.765-3.794,3.765H323.265z    M418.963,227.438v-93.673c0-10.791-8.824-19.615-19.657-19.615H247.148c-10.814,0-19.604,8.824-19.604,19.615v93.673   c0,10.791,8.789,19.616,19.604,19.616h152.158C410.139,247.054,418.963,238.229,418.963,227.438"/>
	<rect x="112.963" y="239.257" display="inline" fill="#002231" width="149.5" height="7.797"/>
	<g display="inline">
		<path fill="#1A6F9F" d="M292.123,176.379c-8.131,0-14.719-7.006-14.719-15.619c0-8.641,6.588-15.646,14.719-15.646    c8.138,0,14.715,7.008,14.715,15.646C306.837,169.374,300.26,176.379,292.123,176.379 M259.578,137.727v49.197h67.103    c0.094-0.242,0.216-0.492,0.387-0.752l5.702-8.643c1.22-1.854,3.377-2.131,4.787-0.607c1.407,1.525,3.572,1.25,4.797-0.598    l5.166-7.81c1.228-1.854,3.749-2.418,5.597-1.239l0.913,0.577c1.849,1.181,4.562,0.779,6.029-0.875l4.961-5.616    c1.469-1.656,3.209-1.267,3.871,0.879l7.225,23.408c0.14,0.446,0.18,0.875,0.158,1.272H386.9v-49.197L259.578,137.727    L259.578,137.727z"/>
	</g>
	<rect x="259.578" y="194.01" display="inline" fill="#28A3DC" width="47.26" height="30.154"/>
	<path display="inline" fill="#28A3DC" d="M349.11,223.801h-36.818v-1.922h36.818V223.801z M342.392,218.381H312.29v-1.922h30.102   V218.381z M366.78,206.626h-54.487v-1.922h54.487V206.626L366.78,206.626z M366.78,201.337h-54.487v-1.922h54.487V201.337   L366.78,201.337z M366.78,196.02h-54.487v-1.924h54.487V196.02L366.78,196.02z"/>
	<path display="inline" fill="#FFFFFF" d="M241.899,192.822c3.128,0,5.665-2.532,5.665-5.688c0-3.128-2.537-5.66-5.665-5.66   c-3.142,0-5.679,2.532-5.679,5.66C236.22,190.29,238.757,192.822,241.899,192.822"/>
</g>
<g id="Layer_2" display="none">
	<g display="inline">
		<g>
			<g>
				<g>
					<path fill="#08222F" d="M305.784,241.385l-215.416,0.055c-38.51,0-60.026-22.805-60.026-54.334       c0-20.541,11.209-39.557,28.917-49.66c2.524-28.417,28.284-50.424,57.949-46.056c17.356-27.653,47.762-44.613,80.616-44.613       c36.838,0,69.936,20.995,85.739,53.933c0.66-0.015,1.311-0.029,1.965-0.029c39.596,0,71.811,32.215,71.811,71.805       C357.339,204.457,335.995,232.521,305.784,241.385L305.784,241.385z"/>
					<path fill="#08222F" d="M90.369,246.516L90.369,246.516c-39.546,0-65.102-23.32-65.102-59.41       c0-21.402,11.134-41.365,29.229-52.725c3.976-29.1,30.459-51.023,60.175-48.401c18.685-27.792,49.526-44.28,83.154-44.28       c37.811,0,71.567,20.574,88.87,53.914c41.859,0.625,75.721,34.867,75.721,76.871c0,33.9-22.701,64.236-55.203,73.773       l-1.428,0.203L90.369,246.516z M109.693,95.91c-23.355,0-43.284,18.442-45.375,41.986l-0.234,2.643l-2.31,1.312       c-16.255,9.277-26.354,26.617-26.354,45.254c0,30.385,21.054,49.258,54.949,49.258l214.671-0.055       c27.842-8.498,47.221-34.639,47.221-63.824c0-36.795-29.938-66.729-66.732-66.729l-5.088,0.1l-1.451-2.949       c-15.111-31.491-46.209-51.053-81.165-51.053c-31.188,0-59.714,15.79-76.317,42.233l-1.76,2.807l-3.278-0.481       C114.215,96.078,111.934,95.91,109.693,95.91z"/>
				</g>
				<path fill="#FFFFFF" d="M110.105,105.717c-19.964,0-36.204,16.236-36.204,36.199v4.725l-4.273,2.148      c-14.849,6.949-24.437,21.986-24.437,38.316c0,23.344,18.993,42.338,42.333,42.338h203.742l5.627-1.141      c26.418-5.34,45.6-28.824,45.6-55.818c0-31.41-25.553-56.957-56.963-56.957c-1.953,0-3.938,0.1-5.871,0.303l-5.512,0.574      l-2.117-5.12c-12.467-30.167-41.599-49.67-74.204-49.67c-29.275,0-56.244,15.968-70.393,41.663l-2.772,5.031l-5.567-1.417      C116.025,106.107,112.995,105.717,110.105,105.717z"/>
			</g>
			<path fill="#08222F" d="M136.811,80.706c-30.93,27.86-16.107,54.567-16.107,54.567s0.997-71.849,81.14-71.849     C187.368,64.346,151.552,59.539,136.811,80.706z"/>
			<path fill="#08222F" d="M74.549,107.586c-21.664,33.219,0.039,58.529-1.551,56.877c-0.296-1.527-4.694-65.453,48.704-55.618     C117.155,97.482,104.469,89.947,74.549,107.586z"/>
			<path fill="#08222F" d="M278.931,114.219c0,0-6.189-0.877-6.68-2.39c-3.609-11.214-26.199-60.368-97.801-44.197l-28.834,8.274     v-9.291l23.32-8.478l37.271-6.677l42.308,13.301c0,0,25.551,19.696,26.398,22.234L278.931,114.219z"/>
		</g>
		<polyline fill="#45A4B7" points="296.436,152.066 337.84,188.168 381.802,164.18 381.965,203.734 296.643,250.008     210.348,205.773 210.348,163.533 254.857,187.814 296.436,152.066   "/>
		<g>
			<g>
				<g>
					<path fill="#FFFFFF" d="M411.961,153.218c0.41-0.224,0.46-0.661,0.11-0.972l-34.791-30.855       c-0.35-0.311-0.974-0.384-1.386-0.164l-2.7,1.439c-0.412,0.22-0.75,0.018-0.75-0.45V48.812c0-0.468,0.069-1.059,0.154-1.314       c0.084-0.255,0.153-1.366,0.153-1.834v-9.525c0-0.468-0.151-1.201-0.337-1.631l-2.348-2.435       c-0.425-0.196-1.155-0.356-1.623-0.356H227.136c-0.468,0-1.198,0.16-1.623,0.356l-2.348,2.434       c-0.185,0.43-0.336,1.164-0.336,1.631v8.728c0,0.468-0.03,0.791-0.066,0.719c-0.037-0.073-0.137-0.165-0.181-0.027       s-0.079,0.916-0.079,1.383v71.683c0,0.468,0.161,1.198,0.358,1.622l1.71,3.68c0.197,0.424,0.022,0.589-0.389,0.366       l-7.568-4.107c-0.411-0.223-1.032-0.15-1.38,0.162l-34.897,31.312c-0.348,0.312-0.297,0.751,0.114,0.975l29.152,15.902       c0.411,0.224,0.747,0.79,0.747,1.258v37.248c0,0.468,0.34,1.025,0.757,1.238l84.781,43.461       c0.416,0.213,1.093,0.205,1.504-0.018l83.828-45.469c0.411-0.223,0.745-0.788,0.743-1.256l-0.142-34.475       c-0.002-0.468,0.332-1.034,0.742-1.258L411.961,153.218z"/>
				</g>
				<path fill="#08222F" d="M364.174,31.716c2.818,0,7.381,0.802,7.808,1.784c0.423,0.982,0.771,4.091,0.771,6.91v0.986      c0,2.813-0.07,5.844-0.154,6.099c-0.083,0.26-0.153,2.771-0.153,5.589v64.866c0,2.445,0.713,4.113,1.651,4.113      c0.141,0,0.295-0.035,0.444-0.113c0.233-0.124,0.52-0.178,0.85-0.178c1.344,0,3.396,0.951,5.091,2.449l28.399,25.193      c2.105,1.871,1.806,4.496-0.66,5.848l-21.913,11.957c-2.471,1.352-4.482,4.756-4.47,7.57l0.105,25.941      c0.014,2.814-2.003,6.219-4.474,7.557l-76.33,41.4c-1.268,0.691-2.968,1.035-4.654,1.035c-1.594,0-3.18-0.309-4.399-0.93      l-77.18-39.572c-2.505-1.281-4.558-4.637-4.558-7.451v-28.707c0-2.818-2.021-6.219-4.492-7.574l-21.666-11.811      c-2.47-1.354-2.774-3.986-0.683-5.867l28.554-25.621c1.273-1.135,3.153-1.748,4.994-1.748c1.18,0,2.343,0.252,3.312,0.775      l0.07,0.035c1.181,0.648,2.132,0.965,2.73,0.965c0.66,0,0.898-0.383,0.546-1.127c-0.66-1.44-1.211-4.924-1.211-7.738v-63.14      c0-2.813,0.035-5.513,0.084-5.654c0.018-0.053,0.039-0.07,0.065-0.07c0.04,0,0.089,0.048,0.11,0.093v0.009      c0.035,0,0.066-2.22,0.066-4.994V40.41c0-2.819,0.774-7.456,1.727-7.896c0.951-0.44,4.033-0.797,6.848-0.797H364.174       M364.174,16.665H231.403c-3.85,0-9.257,0.383-13.172,2.193c-8.636,3.998-10.45,13.924-10.45,21.552      c0,0.916,0,1.739-0.009,2.431c-0.316,1.752-0.316,3.831-0.316,8.371v57.253c-2.004,0.906-3.854,2.104-5.452,3.535      l-28.545,25.607c-4.686,4.211-6.967,10.068-6.267,16.084c0.7,6.006,4.267,11.176,9.781,14.188l18.329,9.992v24.898      c0,8.434,5.24,17.012,12.748,20.848l77.171,39.566c3.315,1.691,7.2,2.586,11.265,2.586c2.999,0,7.481-0.494,11.833-2.857      l76.325-41.391c7.31-3.977,12.383-12.547,12.348-20.857l-0.088-22.088l18.521-10.098c5.545-3.035,9.107-8.217,9.794-14.25      c0.679-6.016-1.629-11.873-6.341-16.066l-28.413-25.197c-0.66-0.59-1.673-1.418-2.973-2.281v-57.6      c0-1.52,0.018-2.92,0.053-3.766c0.177-1.528,0.251-3.761,0.251-7.922V40.41c0-3.752-0.343-9.028-1.994-12.863      C381.718,18.083,370.497,16.665,364.174,16.665L364.174,16.665z"/>
			</g>
			<g>
				<polygon fill="#28A3DC" points="337.84,188.168 296.436,152.066 254.857,187.814 210.348,163.533 210.348,205.773       296.643,250.008 381.965,203.734 381.802,164.18     "/>
				<path fill="#08222F" d="M296.436,152.066l41.404,36.102l43.962-23.988l0.163,39.555l-85.322,46.273l-86.295-44.234v-42.24      l44.509,24.281L296.436,152.066 M296.467,144.107l-3.959,3.396l-38.422,33.035l-40.858-22.291l-8.899-4.854v10.139v42.24v3.678      l3.276,1.678l86.295,44.234l2.818,1.449l2.792-1.512l85.326-46.277l3.166-1.719l-0.018-3.598l-0.163-39.549l-0.044-10.094      l-8.86,4.832l-40.276,21.982l-38.25-33.354L296.467,144.107L296.467,144.107z"/>
			</g>
			<path fill="#FFFFFF" d="M372.445,44.135c0-0.273-0.075-0.537-0.159-0.784c-0.365,1.576-1.673,2.774-3.298,2.774H225.973     c-1.647,0-2.946-1.198-3.312-2.774c-0.092,0.247-0.158,0.511-0.158,0.784v68.742l2.471,1.338V50h145.64v62.796l1.832-0.99V44.135     z"/>
			<path fill="#FFFFFF" d="M369.402,58.753c0-1.205-1.062-2.175-2.37-2.175H258.366c-0.709,0-1.563-0.541-1.846-1.129l-1.365-3.114     c-0.458-1.038-1.778-1.833-2.977-1.833H231.08c-1.206,0-2.562,0.768-3.073,1.773l-2.453,4.74V108.3l-0.581-0.267v61.396h145.64     v-62.677l-1.211,0.565V58.753z"/>
			<path fill="#8DD7F7" d="M359.374,89.792c0,2.065-1.647,3.756-3.682,3.756H238.659c-1.999,0-3.677-1.691-3.677-3.756V75.947     c0-2.061,1.678-3.743,3.677-3.743h117.033c2.034,0,3.682,1.682,3.682,3.743V89.792z"/>
			<g>
				<rect x="235.982" y="107.254" fill="#8DD7F7" width="58.099" height="1.246"/>
				<rect x="232.97" y="104.24" fill="#8DD7F7" width="64.118" height="7.268"/>
			</g>
			<g>
				<rect x="235.982" y="117.562" fill="#8DD7F7" width="58.099" height="1.242"/>
				<rect x="232.97" y="114.551" fill="#8DD7F7" width="64.118" height="7.262"/>
			</g>
			<path fill="#8DD7F7" d="M317.42,141.475h-8.165c-2.148,0-2.901-1.475-1.704-3.299l5.65-8.371     c1.202-1.814,3.355-2.074,4.733-0.586c1.383,1.48,3.532,1.211,4.747-0.59l5.113-7.592c1.211-1.783,3.717-2.334,5.549-1.193     l0.885,0.568c1.836,1.141,4.519,0.748,5.976-0.859l4.901-5.451c1.471-1.617,3.188-1.234,3.862,0.85l2.594,8.305l7.812-4.17     v-11.832c0-2.193-1.753-3.959-3.911-3.959h-48.286c-2.153,0-3.906,1.766-3.906,3.959v41.773L317.42,141.475z"/>
			<path fill="#08222F" d="M225.554,123.916v-66.35l2.453-5.267c0.511-1.101,1.867-1.973,3.073-1.973h21.099     c1.198,0,2.519,0.902,2.977,2.061l1.365,3.404c0.282,0.691,1.137,1.281,1.846,1.281h108.665c1.309,0,2.37,1.088,2.37,2.413v67.35     l4.628-3.201V42.391c0-0.282-1.66,1.043-1.744,0.797c-0.365,1.585-1.673,2.788-3.298,2.788H225.973     c-1.647,0-2.946-1.202-3.312-2.788c-0.092,0.247-1.409-0.119-1.409,0.163v73.383L225.554,123.916z"/>
			<g>
				<path fill="#08222F" d="M369.295,29.598h-143.01c-1.92,0-3.457,1.599-3.457,3.571v11.229c0,1.969,1.537,3.576,3.457,3.576      h143.01c1.916,0,3.457-1.607,3.457-3.576V33.169C372.752,31.197,371.211,29.598,369.295,29.598z"/>
				<path fill="#08222F" d="M369.295,50.983h-143.01c-3.572,0-6.47-2.955-6.47-6.584V33.169c0-3.624,2.897-6.579,6.47-6.579h143.01      c3.567,0,6.465,2.955,6.465,6.579v11.229C375.76,48.028,372.863,50.983,369.295,50.983z M226.285,32.606      c-0.247,0-0.449,0.255-0.449,0.563v11.229c0,0.304,0.207,0.563,0.449,0.563h143.01c0.242,0,0.445-0.26,0.445-0.563V33.169      c0-0.308-0.198-0.563-0.445-0.563H226.285z"/>
			</g>
			<path fill="#FFFFFF" d="M333.59,41.872h-76.84c-1.911,0-3.453-1.498-3.453-3.32c0-1.841,1.542-3.347,3.453-3.347h76.84     c1.881,0,3.448,1.506,3.448,3.347C337.038,40.374,335.471,41.872,333.59,41.872z"/>
			<path fill="#FFFFFF" d="M364.487,41.872h-20.151c-1.902,0-3.457-1.498-3.457-3.32c0-1.841,1.555-3.347,3.457-3.347h20.151     c1.89,0,3.457,1.506,3.457,3.347C367.944,40.374,366.376,41.872,364.487,41.872z"/>
			<g>
				<g>
					<path fill="#FFFFFF" d="M412.707,150.695l-35.427-31.424c-0.35-0.311-0.974-0.384-1.386-0.164l-80.854,43.148       c-0.412,0.22-0.462,0.652-0.109,0.959l35.859,31.271c0.353,0.308,0.977,0.375,1.387,0.152L412.707,150.695"/>
				</g>
				<path fill="#08222F" d="M332.555,197.904L332.555,197.904c-2.994,0-5.888-1.031-7.943-2.824l-29.435-25.65      c-2.145-1.877-3.206-4.426-2.915-7.002c0.295-2.572,1.906-4.818,4.416-6.166l73.326-39.122      c4.039-2.167,10.059-1.437,13.467,1.585l37.035,32.861l-82.42,44.971C336.475,197.438,334.564,197.904,332.555,197.904z"/>
			</g>
			<g>
				<g>
					<path fill="#FFFFFF" d="M298.077,163.172c0.354-0.305,0.309-0.737-0.103-0.96l-81.362-44.147       c-0.411-0.223-1.032-0.15-1.38,0.163l-34.897,31.311c-0.348,0.312-0.297,0.751,0.114,0.975l80.223,43.77       c0.41,0.224,1.036,0.158,1.391-0.147L298.077,163.172z"/>
				</g>
				<path fill="#08222F" d="M260.322,197.551L260.322,197.551c-2.021,0-3.941-0.471-5.562-1.355l-72.731-39.674      c-2.479-1.352-4.073-3.605-4.373-6.174c-0.299-2.572,0.735-5.125,2.84-7.016l28.549-25.611c3.396-3.064,9.438-3.773,13.472-1.58      l73.863,40.064c2.501,1.361,4.096,3.619,4.373,6.195c0.272,2.572-0.807,5.117-2.964,6.977l-29.549,25.4      C266.187,196.539,263.303,197.551,260.322,197.551z"/>
			</g>
		</g>
		<path fill="#28A3DC" d="M302.192,163.555l28.355,24.719c0.326,0.295,1.102,0.604,2.008,0.604l0,0c0.477,0,0.93-0.09,1.207-0.242    l71.146-38.828l-27.427-24.322c-0.502-0.445-2.408-0.832-3.224-0.387L302.192,163.555z"/>
		<g>
			<path fill="#08222F" stroke="#08222F" stroke-width="6" stroke-miterlimit="10" d="M404.353,186.967     c-8.715-16.793-25.717-27.156-44.763-27.156c-16.938,0-32.472,8.305-41.883,22.305c-14.969-1.322-28.308,9.721-30.31,24.379     c-9.113,5.721-14.723,15.775-14.723,26.557c0,18.178,12.872,29.924,32.791,29.924l108.503-0.027l0.72-0.102     c16.37-4.805,27.805-20.084,27.805-37.16C442.493,204.529,425.438,187.281,404.353,186.967z"/>
			<path fill="#FFFFFF" d="M409.49,253.801l-2.834,0.576H304.033c-11.757,0-21.324-9.568-21.324-21.326     c0-7.48,4.002-14.408,10.35-18.238c1.311,4.398,3.656,6.834,3.656,6.834s-0.715-3.721-0.541-8.477l-0.035-3.676     c0-6.633,4.603-11.635,9.91-14.826c3.339-1.533,7.779-2.131,13.625-1.273c-2.087,7.848,1.071,13.549,1.071,13.549     s4.518-22.816,33.233-27.846c-5.371,0.342-15.527,1.076-21.191,0.924c7.289-6.451,16.774-10.18,26.803-10.18     c16.424,0,31.096,9.822,37.376,25.018l1.068,2.58l2.775-0.289c0.974-0.104,1.973-0.152,2.957-0.152     c15.821,0,28.69,12.867,28.69,28.688C432.457,239.283,422.796,251.111,409.49,253.801z"/>
		</g>
		<path fill="#28A3DC" d="M187.471,149.199l71.617,39.074c0.811,0.449,2.757,0.084,3.264-0.348l28.461-24.463l-72.6-39.387    c-0.806-0.428-2.651-0.071-3.14,0.365L187.471,149.199z"/>
		<g>
			<path fill="#08222F" stroke="#08222F" stroke-width="6" stroke-miterlimit="10" d="M176.868-59.344     C168.154-76.136,151.152-86.5,132.107-86.5c-16.939,0-32.473,8.305-41.883,22.304c-14.969-1.321-28.309,9.721-30.311,24.379     C50.8-34.096,45.191-24.041,45.191-13.26c0,18.179,12.873,29.925,32.791,29.925l108.503-0.027l0.719-0.102     c16.371-4.805,27.805-20.084,27.805-37.16C215.009-41.782,197.954-59.029,176.868-59.344z"/>
			<path fill="#FFFFFF" d="M182.005,7.49l-2.833,0.575H76.55c-11.758,0-21.324-9.567-21.324-21.326     c0-7.479,4.002-14.409,10.35-18.238c1.311,4.398,3.656,6.834,3.656,6.834s-0.715-3.721-0.541-8.476l-0.035-3.677     c0-6.632,4.602-11.634,9.91-14.826c3.338-1.533,7.779-2.13,13.625-1.274c-2.088,7.849,1.07,13.549,1.07,13.549     s4.518-22.815,33.234-27.845c-5.371,0.342-15.527,1.077-21.191,0.923c7.289-6.452,16.773-10.18,26.803-10.18     c16.424,0,31.096,9.823,37.375,25.019l1.068,2.58l2.775-0.29c0.975-0.102,1.973-0.152,2.957-0.152     c15.822,0,28.691,12.868,28.691,28.689C204.973-7.027,195.311,4.801,182.005,7.49z"/>
		</g>
	</g>
</g>
<g id="Layer_3" display="none">
	<g display="inline">
		<g>
			<path fill="#FFFFFF" d="M161.762,197.109c0,0-3.787-1.278-8.416-2.841s-8.988,1.169-9.686,6.069l-4.13,29.002     c-0.698,4.9,2.781,8.91,7.731,8.91h120.914c4.95,0,8.955-4.05,8.901-8.999l-0.443-40.332c-0.054-4.949,3.312-11.182,7.482-13.85     l38.806-24.829"/>
			<g>
				<path fill="#FFFFFF" d="M309.44,38.397l35.452-3.933c4.494-1.023,8.591-3.678,11.181-7.901c5.058-8.252,2.443-19.032-5.81-24.09      c-4.209-2.581-9.078-3.159-13.525-1.981L309.44,2.36L167.815,13.062l-9.125-25.344c-0.189-5.366-4.887-9.68-9.153-13.566      c-8.338-7.592-21.245-6.955-28.836,1.382c-3.874,4.253-5.599,9.698-5.224,15.045l5.567,26.566l0.953,39.661      c-0.905,23.168-11.237,42.554-11.237,42.554s-6.419,35.942,6.096,66.507c6.938,16.946,41.119,29.965,36.49,28.402      s-8.988,1.169-9.686,6.069l-4.13,29.002c-0.698,4.9,2.781,8.91,7.731,8.91h120.914c4.95,0,8.955-4.05,8.901-8.999l-0.443-40.332      c-0.054-4.949,3.312-11.182,7.482-13.85l20.208-24.829L309.44,38.397z"/>
				<path fill="#08222F" d="M268.176,247.25H147.262c-4.97,0-9.628-2.085-12.782-5.72c-3.153-3.635-4.56-8.541-3.859-13.46      l4.13-29.001c0.19-1.334,0.524-2.607,0.987-3.808c-14.394-8.271-23.523-16.98-27.21-25.985      c-13.352-32.608-6.907-69.927-6.626-71.499l0.25-1.398l0.668-1.253c0.085-0.162,9.295-17.818,10.175-38.396l-0.926-38.546      l-5.525-26.363l-0.043-0.613c-0.564-8.053,2.116-15.771,7.548-21.735c5.57-6.118,13.51-9.628,21.783-9.628      c7.327,0,14.347,2.718,19.766,7.652c4.668,4.252,10.956,9.98,11.962,18.283l6.405,17.791L308.762-6.614l26.592-1.82      c6.661-1.508,13.775-0.344,19.614,3.236c6.036,3.699,10.277,9.526,11.939,16.405c1.665,6.893,0.542,14.017-3.161,20.06      c-3.739,6.098-9.726,10.35-16.856,11.974l-0.498,0.113l-28.313,3.141l-4.899,107.124l-22.994,28.253l-1.218,0.779      c-1.547,0.989-3.354,4.334-3.334,6.171l0.443,40.331c0.053,4.817-1.785,9.357-5.175,12.784S272.992,247.25,268.176,247.25z       M148.634,229.25h119.442l-0.441-40.232c-0.082-7.561,4.167-15.945,10.278-20.585l17.557-21.57l5.331-116.562l42.51-4.716      c1.626-0.444,3.694-1.451,5.089-3.727c1.186-1.934,1.545-4.216,1.011-6.424c-0.535-2.216-1.902-4.094-3.851-5.287      c-1.951-1.197-4.317-1.539-6.519-0.955l-0.831,0.22l-28.156,1.927L161.666,22.552l-11.921-33.109l-0.049-1.407      c-0.057-1.616-4.22-5.408-6.22-7.23c-2.095-1.908-4.811-2.96-7.646-2.96c-3.265,0-6.274,1.331-8.475,3.748      c-1.969,2.161-2.997,4.923-2.925,7.828l5.592,26.684l0.98,40.769l-0.011,0.284c-0.84,21.5-9.02,39.794-11.557,44.988      c-0.901,6.248-4.366,35.603,5.751,60.311c2.764,6.75,14.445,15.432,31.248,23.224c6.692,3.104,6.714,8.004,6.132,10.648      l-1.554,7.06l-7.236,0.008c-0.002,0-0.005,0-0.007,0c-0.529,0-1.008-0.045-1.436-0.113L148.634,229.25z"/>
			</g>
		</g>
		<g>
			<path fill="#FFFFFF" d="M309.011,47.759V167.45c0,3.188-2.527,5.873-5.592,5.873H163.886c-3.05,0-5.606-2.686-5.606-5.873V47.759     V-71.86c0-3.25,2.556-5.918,5.606-5.918h139.533c3.064,0,5.592,2.668,5.592,5.918V47.759z"/>
			<g>
				<g>
					<path fill="#1A6F9F" d="M206.73-20.813c-6.92,0-12.53-5.963-12.53-13.3c0-7.363,5.61-13.327,12.53-13.327       c6.926,0,12.533,5.964,12.533,13.327C219.262-26.776,213.656-20.813,206.73-20.813 M179.015-53.726v57.98h58.119l4.04-6.111       c1.013-1.533,2.792-1.76,3.945-0.512c1.166,1.257,2.946,1.028,3.959-0.493l4.249-6.428c1.015-1.539,3.09-1.998,4.619-1.031       l0.754,0.482c1.527,0.967,3.76,0.644,4.97-0.722l4.092-4.629c1.206-1.368,2.64-1.059,3.184,0.726l5.783,18.717h10.725v-57.98       L179.015-53.726L179.015-53.726z"/>
				</g>
				<rect x="179.094" y="89.963" fill="#8DD7F7" width="48.102" height="27.535"/>
				<rect x="232.739" y="89.845" fill="#8DD7F7" width="55.453" height="3.085"/>
				<rect x="232.739" y="95.119" fill="#8DD7F7" width="55.453" height="3.08"/>
				<rect x="232.739" y="100.372" fill="#8DD7F7" width="55.453" height="3.077"/>
				<rect x="179.094" y="11.28" fill="#28A3DC" width="48.102" height="30.679"/>
				<rect x="232.739" y="11.155" fill="#28A3DC" width="55.453" height="3.076"/>
				<rect x="232.739" y="16.425" fill="#28A3DC" width="55.453" height="3.088"/>
				<rect x="232.739" y="21.687" fill="#28A3DC" width="55.453" height="3.072"/>
				<rect x="232.739" y="33.344" fill="#28A3DC" width="30.632" height="3.076"/>
				<rect x="232.739" y="38.724" fill="#28A3DC" width="37.471" height="3.085"/>
				<rect x="179.094" y="50.43" fill="#47A7C9" width="48.102" height="30.694"/>
				<rect x="232.739" y="50.315" fill="#47A7C9" width="55.453" height="3.073"/>
				<rect x="232.739" y="55.59" fill="#47A7C9" width="55.453" height="3.073"/>
				<rect x="232.739" y="60.836" fill="#47A7C9" width="55.453" height="3.077"/>
				<rect x="232.739" y="72.501" fill="#47A7C9" width="30.632" height="3.072"/>
				<rect x="232.739" y="77.88" fill="#47A7C9" width="37.471" height="3.073"/>
			</g>
		</g>
		<path fill="#08222F" d="M299.244,34.082l-0.037,99.764c0,2.665-2.203,4.821-4.855,4.808l-121.066-0.26    c-2.641,0-4.866-2.156-4.854-4.831l0.035-99.753l0.047-98.175c0-2.663,2.216-4.854,4.868-4.854l121.053,0.261    c2.665,0.012,4.857,2.202,4.857,4.865L299.244,34.082z M294.448-89.436l-121.065-0.248c-13.976-0.035-25.369,11.274-25.369,25.271    l-0.08,221.335c-0.013,13.963,11.366,25.308,25.342,25.331l121.067,0.26c13.971,0.036,25.393-11.262,25.418-25.224l0.072-221.335    C319.832-78.043,308.42-89.399,294.448-89.436"/>
		<g>
			<path fill="#FFFFFF" d="M333.182,94.249l-19.642,4.706c-3.713,0.983-7.777,0.501-11.291-1.654     c-6.89-4.222-9.072-13.222-4.85-20.11c2.161-3.525,5.581-5.741,9.333-6.596l19.655-4.818c0,0,16.926-7.107,22.064,16.209     C348.452,81.985,352.823,89.543,333.182,94.249z"/>
			<path fill="#08222F" d="M309.807,108.442c-4.322,0-8.562-1.2-12.264-3.47c-5.376-3.294-9.153-8.485-10.634-14.613     c-1.483-6.142-0.483-12.488,2.817-17.872c3.316-5.411,8.615-9.19,14.926-10.649l19.093-4.681c1.479-0.519,4.554-1.4,8.366-1.4     c5.87,0,19.933,2.306,24.94,23.46c0.989,2.687,1.286,6.369-0.34,10.157c-2.736,6.369-9.747,10.827-21.434,13.627l-19.55,4.685     C313.792,108.188,311.801,108.442,309.807,108.442z M329.789,74.113l-0.734,0.347l-0.524,0.058l-19.8,4.853     c-1.119,0.255-2.662,0.899-3.658,2.524c-0.782,1.275-1.019,2.78-0.667,4.238c0.354,1.464,1.258,2.705,2.546,3.494     c1.302,0.799,2.825,1.014,4.284,0.628l0.208-0.052l19.642-4.706c4.552-1.091,7.009-2.209,8.253-2.937     c-2.283-8.804-5.975-8.804-7.227-8.804C330.989,73.757,330.068,74.023,329.789,74.113z"/>
		</g>
		<g>
			<path fill="#FFFFFF" d="M333.182,142.183l-19.642,4.706c-3.713,0.983-7.777,0.501-11.291-1.654     c-6.89-4.222-9.072-13.222-4.85-20.11c2.161-3.525,5.581-5.741,9.333-6.596l19.655-4.818c0,0,16.926-7.107,22.064,16.209     C348.452,129.919,352.823,137.477,333.182,142.183z"/>
			<path fill="#08222F" d="M309.807,156.376c-4.322,0-8.562-1.2-12.264-3.47c-5.376-3.294-9.153-8.485-10.634-14.613     c-1.483-6.142-0.483-12.488,2.817-17.872c3.316-5.411,8.615-9.19,14.926-10.649l19.093-4.681c1.479-0.519,4.554-1.4,8.366-1.4     c5.87,0,19.933,2.306,24.94,23.46c0.989,2.687,1.286,6.369-0.34,10.157c-2.736,6.369-9.747,10.827-21.434,13.627l-19.55,4.685     C313.792,156.121,311.801,156.376,309.807,156.376z M329.789,122.047l-0.734,0.347l-0.524,0.058l-19.8,4.853     c-1.119,0.255-2.662,0.899-3.658,2.524c-0.782,1.275-1.019,2.78-0.667,4.238c0.354,1.464,1.258,2.705,2.546,3.494     c1.302,0.799,2.825,1.014,4.284,0.628l0.208-0.052l19.642-4.706c4.552-1.091,7.009-2.209,8.253-2.937     c-2.283-8.804-5.975-8.804-7.227-8.804C330.989,121.69,330.068,121.957,329.789,122.047z"/>
		</g>
		<path fill="#FFFFFF" d="M233.897,171.865c6.752,0,12.227-5.465,12.227-12.274c0-6.75-5.475-12.215-12.227-12.215    c-6.779,0-12.256,5.465-12.256,12.215C221.643,166.4,227.117,171.865,233.897,171.865"/>
	</g>
</g>
<g id="Layer_4" display="none">
	<g display="inline">
		<g>
			<path fill="#28A3DC" d="M108.717,127.437c-9.253,2.766-17.069,4.227-23.448,4.383c-6.381,0.158-11.185,0.09-14.413-0.208     L70.5,107.333c5.114,0.41,10.984,0.311,17.613-0.299c6.627-0.605,13.257-2.207,19.889-4.798     c7.489-2.926,12.223-5.942,14.193-9.048c1.972-3.106,2.237-6.501,0.798-10.185c-0.911-2.332-2.244-4.113-3.998-5.339     c-1.752-1.226-3.937-2.104-6.552-2.642c-2.617-0.533-5.773-0.823-9.469-0.865c-3.698-0.042-7.922,0.016-12.671,0.172     c-4.628,0.11-9.224,0.031-13.789-0.238c-4.563-0.268-8.915-1.082-13.055-2.438c-4.139-1.356-7.893-3.531-11.259-6.536     c-3.368-3.001-6.082-7.141-8.146-12.423c-1.583-4.053-2.524-8.177-2.819-12.381c-0.298-4.199,0.182-8.314,1.439-12.347     c1.257-4.027,3.429-7.885,6.52-11.571c3.09-3.682,7.144-7.07,12.165-10.167l-7.772-19.894l23.21-9.068l7.484,19.157     c6.625-1.879,12.482-3.104,17.566-3.678c5.085-0.57,9.218-0.769,12.399-0.598l2.926,24.336     c-4.724-0.135-9.997,0.226-15.818,1.084c-5.821,0.861-11.68,2.439-17.575,4.743c-5.895,2.303-9.747,4.944-11.559,7.914     c-1.811,2.973-2.093,6.056-0.846,9.247c0.768,1.966,1.826,3.501,3.176,4.599c1.35,1.102,3.099,1.868,5.252,2.301     c2.15,0.434,4.689,0.682,7.616,0.744c2.925,0.065,6.409,0.014,10.453-0.146c6.172-0.142,12.019,0.058,17.538,0.596     c5.519,0.538,10.553,1.653,15.105,3.338c4.551,1.688,8.569,4.186,12.057,7.491c3.486,3.309,6.285,7.663,8.394,13.062     c1.44,3.685,2.313,7.55,2.623,11.603c0.31,4.052-0.226,8.116-1.606,12.192c-1.38,4.076-3.696,8.023-6.945,11.84     c-3.252,3.818-7.695,7.392-13.327,10.724l8.781,22.474l-23.21,9.068L108.717,127.437z"/>
		</g>
		<g>
			<path fill="#1A6F9F" d="M165.58-4.509l45.221-6.931l5.053,32.963l-45.222,6.931c0.792,6.386,1.427,13.26,1.906,20.618     c0.475,7.365,0.72,14.109,0.732,20.242l71.102-10.897l5.219,34.053l-115.779,17.744c1.042-15.028,1.163-28.8,0.359-41.32     c-0.802-12.515-1.819-23.978-3.04-34.386l-23.7,3.632l-5.052-32.963l23.7-3.632l-2.212-14.438     c-2.088-13.621-2.186-25.177-0.294-34.667c1.891-9.491,5.279-17.399,10.165-23.724c4.886-6.325,11.148-11.232,18.793-14.73     c7.642-3.494,16.186-5.965,25.631-7.413c7.262-1.113,14.185-1.429,20.765-0.952c6.579,0.481,13.061,1.532,19.444,3.154     l-5.195,33.417c-4.486-1.355-8.658-2.202-12.519-2.543c-3.863-0.335-8.441-0.19-13.735,0.433     c-4.358,0.668-8.238,1.729-11.641,3.178c-3.402,1.455-6.181,3.645-8.333,6.575c-2.155,2.935-3.623,6.689-4.407,11.271     c-0.788,4.582-0.676,10.142,0.326,16.679L165.58-4.509z"/>
		</g>
		<g>
			<g>
				<path fill="#FFFFFF" d="M231.689,93.986c-0.963,0-1.864-0.431-2.474-1.183l-17.36-21.484c-0.739-0.924-0.912-2.175-0.442-3.267      c1.648-3.842,4.108-7.046,7.515-9.803c4.072-3.283,8.84-5.409,13.449-7.465c4.438-1.98,8.628-3.851,12.04-6.599      c2.587-2.092,4.441-4.501,5.668-7.365c0.207-0.476,0.519-0.892,0.93-1.228c0.45-0.365,0.993-0.601,1.558-0.674      c0.149-0.021,0.291-0.027,0.438-0.027c0.968,0,1.874,0.428,2.478,1.184l17.354,21.479c0.74,0.922,0.914,2.176,0.447,3.266      c-1.645,3.843-4.105,7.046-7.518,9.797c-4.051,3.275-8.824,5.411-13.445,7.475c-4.431,1.978-8.617,3.839-12.038,6.6      c-2.589,2.087-4.442,4.497-5.671,7.369c-0.205,0.47-0.525,0.894-0.925,1.224c-0.448,0.36-0.991,0.594-1.566,0.674      C231.979,93.976,231.835,93.986,231.689,93.986L231.689,93.986z"/>
				<path fill="#08222F" d="M231.689,95.166c-1.32,0-2.557-0.59-3.393-1.62l-17.358-21.487c-1.016-1.27-1.249-2.979-0.608-4.474      c1.726-4.02,4.299-7.374,7.854-10.255c4.202-3.385,9.039-5.541,13.717-7.623c4.354-1.943,8.47-3.776,11.777-6.442      c2.433-1.968,4.173-4.226,5.323-6.911c0.29-0.658,0.714-1.224,1.27-1.673c0.63-0.506,1.371-0.828,2.153-0.929      c1.482-0.19,3.037,0.403,3.99,1.59l17.354,21.475c1.018,1.266,1.254,2.979,0.609,4.469c-1.721,4.026-4.297,7.379-7.859,10.251      c-4.172,3.371-9.018,5.538-13.702,7.63c-4.372,1.947-8.484,3.779-11.781,6.444c-2.433,1.964-4.175,4.222-5.33,6.916      c-0.284,0.646-0.717,1.223-1.259,1.667c-0.63,0.504-1.37,0.826-2.158,0.929C232.089,95.152,231.889,95.166,231.689,95.166z       M253.009,36.072c-0.09,0-0.183,0.004-0.275,0.021c-0.361,0.047-0.695,0.194-0.982,0.423c-0.254,0.208-0.455,0.471-0.589,0.779      c-1.303,3.04-3.269,5.597-6.004,7.811c-3.549,2.857-7.799,4.754-12.301,6.762c-4.538,2.022-9.232,4.112-13.189,7.306      c-3.254,2.631-5.603,5.69-7.169,9.348c-0.294,0.692-0.189,1.481,0.278,2.064l17.355,21.481c0.438,0.545,1.127,0.836,1.833,0.727      c0.365-0.049,0.708-0.198,0.991-0.424c0.246-0.201,0.448-0.469,0.58-0.774c1.308-3.043,3.274-5.603,6.012-7.813      c3.54-2.855,7.789-4.749,12.284-6.751c4.563-2.042,9.267-4.143,13.2-7.323c3.258-2.626,5.604-5.685,7.174-9.348      c0.293-0.688,0.188-1.475-0.285-2.058l-17.35-21.479C254.19,36.344,253.619,36.072,253.009,36.072z"/>
			</g>
			<g>
				<path fill="#002231" d="M231.695,90.798c7.413-17.278,31.251-13.958,38.671-31.235c-5.748-7.115-11.605-14.371-17.359-21.484      c-7.412,17.281-31.245,13.953-38.669,31.233C220.086,76.426,225.944,83.684,231.695,90.798L231.695,90.798z"/>
				<path fill="#07222F" d="M231.85,91.929l-18.194-22.52l0.142-0.327c3.802-8.854,11.852-12.444,19.636-15.918      c7.928-3.542,15.417-6.885,19.031-15.314l0.385-0.898l0.614,0.76c3.842,4.749,7.727,9.56,11.598,14.35l5.984,7.41l-0.143,0.331      c-3.799,8.85-11.85,12.444-19.632,15.918c-7.93,3.544-15.421,6.887-19.036,15.313L231.85,91.929z M215.022,69.221l16.531,20.463      c3.943-8.212,11.714-11.682,19.236-15.044c7.824-3.493,15.221-6.796,18.893-14.982l-5.539-6.853      c-3.666-4.542-7.35-9.102-10.995-13.609c-3.943,8.217-11.714,11.685-19.235,15.045C226.087,57.729,218.692,61.03,215.022,69.221      z"/>
			</g>
			<g enable-background="new    ">
				<path fill="#FFFFFF" d="M251.502,63.858l1.297,2.202c0.684,1.158,0.842,2.236,0.477,3.232c-0.365,0.996-1.195,1.876-2.492,2.64      c-0.256,0.151-0.577,0.324-0.964,0.521c-0.387,0.198-0.791,0.399-1.211,0.605c-0.422,0.207-0.83,0.411-1.228,0.613      c-0.396,0.204-0.712,0.374-0.947,0.513c-0.275,0.163-0.505,0.313-0.688,0.451c-0.183,0.14-0.334,0.265-0.453,0.376      c-0.13,0.14-0.235,0.253-0.314,0.342c-0.22-0.059-0.475-0.142-0.764-0.252c-0.291-0.109-0.573-0.22-0.849-0.328      c-0.333-0.116-0.671-0.24-1.013-0.372c0.223-0.61,0.374-1.25,0.454-1.923c0.058-0.575,0.048-1.22-0.028-1.935      c-0.078-0.715-0.33-1.435-0.758-2.161c-0.183-0.31-0.346-0.552-0.488-0.728c-0.144-0.175-0.322-0.376-0.536-0.605l-1.444,0.851      l-0.778-1.321l1.149-0.677c-0.617-0.552-1.213-1.07-1.789-1.554c-0.576-0.482-1.083-1.095-1.52-1.836      c-0.59-0.777-0.924-1.589-1.001-2.44c-0.026-0.358-0.009-0.744,0.054-1.155c0.061-0.411,0.212-0.828,0.453-1.251      c0.24-0.423,0.587-0.855,1.04-1.3c0.452-0.444,1.042-0.88,1.77-1.309c1.571-0.926,2.991-1.267,4.258-1.025      c1.268,0.241,2.252,0.958,2.953,2.147l0.997,1.691l-1.178,0.695c-0.374,0.22-0.72,0.352-1.039,0.394      c-0.318,0.043-0.609,0.021-0.871-0.064c-0.262-0.084-0.496-0.224-0.7-0.414c-0.207-0.191-0.382-0.411-0.528-0.659      c-0.318-0.54-0.729-0.824-1.234-0.849c-0.504-0.025-1.032,0.124-1.582,0.448c-0.471,0.278-0.794,0.562-0.967,0.85      c-0.174,0.291-0.26,0.549-0.257,0.777c-0.009,0.255,0.06,0.506,0.206,0.753c0.363,0.618,0.712,1.141,1.045,1.57      c0.331,0.429,0.653,0.807,0.965,1.133c0.312,0.327,0.612,0.624,0.901,0.89c0.29,0.266,0.584,0.541,0.882,0.822l2.623-1.545      l0.778,1.321l-2.387,1.407c0.232,0.259,0.44,0.511,0.625,0.756c0.185,0.246,0.399,0.577,0.646,0.994      c0.41,0.695,0.677,1.408,0.802,2.135c0.124,0.728,0.166,1.438,0.123,2.129c0.589-0.304,1.2-0.614,1.836-0.926      c0.637-0.313,1.103-0.556,1.396-0.729c0.295-0.174,0.521-0.432,0.676-0.773c0.156-0.341,0.144-0.667-0.039-0.976l-0.628-1.066      c-0.21-0.355-0.258-0.738-0.143-1.15c0.115-0.411,0.438-0.772,0.968-1.085L251.502,63.858z"/>
			</g>
		</g>
		<g>
			<path fill="#FFFFFF" d="M81.597,100.972c0-3.604,2.146-6.813,5.451-9.038h165.217c3.313,2.221,5.442,5.43,5.442,9.038v42.398     l-32.009,58.838H113.626l-32.028-58.838L81.597,100.972L81.597,100.972z"/>
		</g>
		<g>
			<path fill="#0E4C68" d="M249.751-42.365l22.13,2.233L270.254-24l-22.131-2.233c-0.404,3.104-0.94,6.416-1.608,9.938     c-0.672,3.524-1.376,6.73-2.116,9.618l34.797,3.511L277.514,13.5l-56.661-5.717c2.317-6.949,4.048-13.417,5.191-19.409     c1.143-5.99,2.057-11.51,2.747-16.558l-11.598-1.17l1.628-16.131l11.598,1.17l0.713-7.066c0.673-6.666,2.032-12.118,4.075-16.356     c2.045-4.238,4.601-7.549,7.669-9.933c3.069-2.384,6.613-3.933,10.638-4.65c4.021-0.716,8.344-0.841,12.967-0.375     c3.553,0.359,6.85,1.051,9.891,2.076c3.039,1.026,5.963,2.308,8.771,3.848l-6.508,15.101c-1.947-1.184-3.809-2.088-5.586-2.718     c-1.777-0.627-3.949-1.116-6.518-1.466c-2.133-0.215-4.088-0.188-5.867,0.082c-1.777,0.271-3.352,0.964-4.721,2.082     c-1.371,1.121-2.52,2.709-3.444,4.771c-0.928,2.062-1.551,4.692-1.874,7.892L249.751-42.365z"/>
		</g>
		<g>
			<g>
				<path fill="#FFFFFF" d="M314.479-21.829c-0.857,0-1.658-0.383-2.199-1.052l-15.443-19.111c-0.658-0.823-0.811-1.936-0.395-2.905      c1.467-3.416,3.654-6.269,6.684-8.722c3.623-2.921,7.863-4.812,11.963-6.64c3.947-1.76,7.674-3.422,10.713-5.871      c2.299-1.861,3.947-4.004,5.041-6.553c0.186-0.422,0.463-0.792,0.826-1.088c0.4-0.325,0.881-0.535,1.385-0.601      c0.131-0.019,0.26-0.026,0.389-0.026c0.863,0,1.668,0.382,2.211,1.057l15.434,19.106c0.66,0.82,0.816,1.936,0.398,2.903      c-1.467,3.416-3.654,6.27-6.686,8.714c-3.604,2.913-7.852,4.813-11.959,6.65c-3.943,1.756-7.666,3.415-10.711,5.869      c-2.303,1.857-3.951,4.001-5.043,6.556c-0.184,0.417-0.471,0.794-0.826,1.086c-0.398,0.321-0.883,0.528-1.393,0.601      C314.739-21.838,314.61-21.829,314.479-21.829L314.479-21.829z"/>
				<path fill="#08222F" d="M314.479-20.779c-1.174,0-2.273-0.525-3.016-1.441l-15.441-19.111c-0.902-1.13-1.111-2.654-0.541-3.981      c1.535-3.576,3.82-6.56,6.986-9.123c3.734-3.012,8.037-4.929,12.199-6.784c3.875-1.729,7.535-3.358,10.477-5.729      c2.166-1.75,3.713-3.763,4.734-6.147c0.258-0.588,0.635-1.088,1.129-1.49c0.561-0.45,1.223-0.737,1.916-0.827      c1.318-0.169,2.703,0.359,3.549,1.415l15.436,19.104c0.906,1.126,1.115,2.649,0.545,3.976c-1.533,3.581-3.822,6.564-6.992,9.119      c-3.711,3.002-8.02,4.927-12.189,6.788c-3.889,1.735-7.547,3.365-10.482,5.732c-2.162,1.747-3.715,3.758-4.738,6.152      c-0.25,0.574-0.637,1.088-1.119,1.483c-0.559,0.449-1.219,0.732-1.92,0.826C314.836-20.792,314.658-20.779,314.479-20.779z       M333.446-73.347c-0.08,0-0.158,0.004-0.242,0.017c-0.32,0.043-0.621,0.174-0.873,0.378c-0.229,0.185-0.406,0.419-0.525,0.692      c-1.158,2.701-2.906,4.977-5.34,6.947c-3.156,2.542-6.941,4.229-10.941,6.015c-4.041,1.798-8.215,3.657-11.734,6.498      c-2.895,2.341-4.982,5.063-6.377,8.316c-0.264,0.613-0.168,1.316,0.244,1.836l15.439,19.108      c0.391,0.482,1.006,0.744,1.631,0.646c0.324-0.044,0.629-0.172,0.883-0.377c0.215-0.18,0.398-0.419,0.514-0.689      c1.16-2.707,2.908-4.984,5.348-6.95c3.146-2.539,6.926-4.222,10.928-6.004c4.061-1.816,8.24-3.686,11.742-6.513      c2.898-2.338,4.982-5.058,6.383-8.315c0.264-0.61,0.164-1.312-0.252-1.831l-15.438-19.106      C334.498-73.104,333.989-73.347,333.446-73.347z"/>
			</g>
			<g>
				<path fill="#002231" d="M314.483-24.663c6.596-15.37,27.801-12.417,34.402-27.786c-5.117-6.33-10.324-12.785-15.443-19.113      c-6.594,15.374-27.795,12.414-34.398,27.785C304.158-37.448,309.369-30.994,314.483-24.663L314.483-24.663z"/>
				<path fill="#07222F" d="M314.625-23.658L298.44-43.693l0.127-0.292c3.381-7.872,10.541-11.069,17.467-14.16      c7.053-3.151,13.713-6.125,16.928-13.623l0.344-0.799l0.547,0.677c3.418,4.224,6.873,8.505,10.316,12.765l5.326,6.591      l-0.125,0.29c-3.381,7.874-10.543,11.072-17.469,14.165c-7.053,3.149-13.717,6.125-16.934,13.622L314.625-23.658z       M299.653-43.858l14.709,18.204c3.504-7.306,10.418-10.392,17.111-13.383c6.961-3.107,13.541-6.046,16.807-13.329l-4.926-6.096      c-3.262-4.041-6.539-8.098-9.781-12.107c-3.506,7.309-10.418,10.396-17.111,13.383C309.5-54.081,302.916-51.144,299.653-43.858z      "/>
			</g>
			<g enable-background="new    ">
				<path fill="#FFFFFF" d="M332.104-48.632l1.154,1.959c0.607,1.031,0.75,1.989,0.424,2.875c-0.324,0.886-1.064,1.669-2.217,2.349      c-0.229,0.134-0.514,0.289-0.857,0.463c-0.344,0.177-0.703,0.355-1.078,0.539s-0.738,0.365-1.09,0.546      c-0.354,0.179-0.635,0.332-0.846,0.455c-0.244,0.145-0.447,0.278-0.609,0.402c-0.164,0.124-0.297,0.236-0.404,0.335      c-0.115,0.124-0.209,0.225-0.279,0.303c-0.195-0.052-0.422-0.126-0.68-0.224s-0.51-0.195-0.754-0.292      c-0.297-0.103-0.598-0.212-0.902-0.329c0.199-0.542,0.334-1.112,0.404-1.711c0.053-0.512,0.043-1.086-0.025-1.721      c-0.068-0.637-0.293-1.277-0.674-1.923c-0.162-0.274-0.307-0.49-0.434-0.646c-0.129-0.157-0.287-0.336-0.477-0.539l-1.285,0.757      l-0.691-1.176l1.021-0.603c-0.549-0.491-1.08-0.952-1.592-1.382s-0.963-0.975-1.352-1.634c-0.525-0.691-0.822-1.414-0.891-2.171      c-0.023-0.319-0.008-0.662,0.047-1.028c0.055-0.365,0.189-0.737,0.404-1.113c0.213-0.376,0.521-0.761,0.926-1.156      c0.402-0.396,0.926-0.784,1.574-1.165c1.396-0.823,2.66-1.127,3.787-0.913c1.127,0.216,2.004,0.853,2.627,1.911l0.887,1.505      l-1.049,0.618c-0.332,0.196-0.639,0.312-0.924,0.35c-0.283,0.039-0.541,0.02-0.775-0.056c-0.232-0.076-0.439-0.198-0.623-0.37      c-0.184-0.169-0.338-0.365-0.469-0.584c-0.283-0.481-0.648-0.733-1.098-0.756c-0.449-0.022-0.918,0.111-1.408,0.399      c-0.418,0.247-0.705,0.5-0.859,0.757c-0.154,0.258-0.23,0.487-0.229,0.69c-0.008,0.227,0.053,0.451,0.184,0.67      c0.324,0.551,0.633,1.017,0.93,1.397c0.295,0.382,0.58,0.717,0.857,1.008c0.277,0.29,0.545,0.554,0.803,0.791      c0.258,0.238,0.52,0.481,0.785,0.732l2.332-1.375l0.693,1.176l-2.123,1.251c0.205,0.23,0.391,0.454,0.555,0.672      c0.164,0.219,0.355,0.513,0.574,0.884c0.365,0.619,0.602,1.252,0.713,1.9c0.111,0.646,0.148,1.279,0.111,1.893      c0.521-0.27,1.066-0.546,1.633-0.824c0.564-0.277,0.98-0.494,1.242-0.648c0.262-0.155,0.463-0.384,0.602-0.688      c0.139-0.304,0.127-0.594-0.035-0.869l-0.561-0.948c-0.186-0.316-0.229-0.658-0.125-1.023c0.102-0.367,0.389-0.688,0.861-0.967      L332.104-48.632z"/>
			</g>
		</g>
		<g>
			<g>
				<g>
					<path fill="#FFFFFF" d="M285.08,88.36c0.818,0.009-0.178,3.708-2.211,8.221L237.093,198.14       c-2.034,4.513-7.748,8.205-12.698,8.205H116.305c-4.95,0-11-3.522-13.443-7.827l-24.446-43.06       c-2.444-4.305-4.443-11.876-4.443-16.827V97.345c0-4.95,4.05-9,9-9h191.622C279.543,88.345,284.262,88.352,285.08,88.36z"/>
				</g>
				<path fill="#08222F" d="M224.395,215.345H116.305c-8.251,0-17.196-5.208-21.27-12.383l-24.446-43.06      c-3.202-5.64-5.617-14.784-5.617-21.27V97.345c0-9.925,8.075-18,18-18h191.622c4.996,0,9.758,0.007,10.582,0.016      c3.125,0.034,5.996,1.629,7.682,4.268c2.445,3.829,1.961,8.342-1.783,16.651l-45.776,101.558      C241.827,209.538,232.841,215.345,224.395,215.345z M82.972,97.345v41.287c0,3.404,1.589,9.422,3.27,12.383l24.446,43.06      c0.85,1.498,3.895,3.27,5.617,3.27h108.089c1.398,0,3.918-1.628,4.493-2.904l43.765-97.096H82.972z"/>
			</g>
			<path fill="#08222F" d="M283.531,104.102c-1.209,0-2.439-0.246-3.619-0.764c-4.549-2.002-6.615-7.312-4.613-11.862l15.477-35.183     c3.414-7.761,12.383-13.614,20.863-13.614h34.334c4.971,0,9,4.029,9,9s-4.029,9-9,9h-34.334c-1.373,0-3.834,1.605-4.387,2.862     l-15.477,35.183C290.291,102.094,286.992,104.101,283.531,104.102z"/>
		</g>
		<path fill="#08222F" d="M221.032,246.45H104.914v-18h116.118c0.055,0,0.193-0.135,0.194-0.19l0.473-22.108l17.996,0.385    l-0.473,22.107C239.014,238.462,230.854,246.45,221.032,246.45z"/>
		<path fill="#FFFFFF" d="M126.451,285.722c6.752,0,12.227-5.465,12.227-12.274c0-6.75-5.475-12.215-12.227-12.215    c-6.779,0-12.256,5.465-12.256,12.215C114.198,280.257,119.672,285.722,126.451,285.722"/>
		<path fill="#08222F" d="M125.539,294.994c-11.46,0-20.784-9.324-20.784-20.784c0-11.46,9.324-20.784,20.784-20.784    s20.784,9.324,20.784,20.784C146.323,285.67,137,294.994,125.539,294.994z M125.539,271.426c-1.535,0-2.784,1.249-2.784,2.784    s1.249,2.784,2.784,2.784s2.784-1.249,2.784-2.784S127.074,271.426,125.539,271.426z"/>
		<path fill="#08222F" d="M209.973,294.994c-11.461,0-20.785-9.324-20.785-20.784c0-11.46,9.324-20.784,20.785-20.784    c11.46,0,20.783,9.324,20.783,20.784C230.756,285.67,221.433,294.994,209.973,294.994z M209.973,271.426    c-1.535,0-2.785,1.249-2.785,2.784s1.25,2.784,2.785,2.784c1.534,0,2.783-1.249,2.783-2.784S211.507,271.426,209.973,271.426z"/>
		<g>
			<g>
				<path fill="#FFFFFF" d="M313.307,36.256c-0.963,0-1.865-0.431-2.475-1.183l-17.359-21.484c-0.74-0.924-0.912-2.175-0.443-3.267      c1.648-3.842,4.109-7.046,7.516-9.803c4.072-3.283,8.84-5.409,13.449-7.465c4.438-1.98,8.627-3.851,12.039-6.599      c2.588-2.092,4.441-4.501,5.668-7.365c0.207-0.476,0.52-0.892,0.93-1.228c0.451-0.365,0.994-0.601,1.559-0.674      c0.148-0.021,0.291-0.027,0.438-0.027c0.967,0,1.873,0.428,2.479,1.184l17.352,21.479c0.74,0.922,0.916,2.176,0.449,3.266      c-1.646,3.843-4.107,7.046-7.518,9.797c-4.051,3.275-8.826,5.411-13.447,7.475c-4.43,1.978-8.617,3.839-12.037,6.6      c-2.59,2.087-4.443,4.497-5.672,7.369c-0.205,0.47-0.525,0.894-0.924,1.224c-0.449,0.36-0.992,0.594-1.566,0.674      C313.596,36.245,313.453,36.256,313.307,36.256L313.307,36.256z"/>
				<path fill="#08222F" d="M313.307,37.435c-1.32,0-2.557-0.59-3.393-1.62l-17.359-21.487c-1.016-1.27-1.248-2.979-0.607-4.474      c1.725-4.02,4.299-7.374,7.854-10.255c4.203-3.385,9.039-5.541,13.717-7.623c4.355-1.943,8.471-3.776,11.777-6.442      c2.434-1.968,4.174-4.226,5.324-6.911c0.289-0.658,0.713-1.224,1.27-1.673c0.629-0.506,1.371-0.828,2.152-0.929      c1.484-0.19,3.039,0.403,3.992,1.59l17.354,21.475c1.016,1.266,1.252,2.979,0.609,4.469c-1.721,4.026-4.297,7.379-7.859,10.251      c-4.174,3.371-9.02,5.538-13.703,7.63c-4.373,1.947-8.484,3.779-11.781,6.444c-2.434,1.964-4.176,4.222-5.33,6.916      c-0.285,0.646-0.717,1.223-1.26,1.667c-0.629,0.504-1.369,0.826-2.158,0.929C313.707,37.421,313.506,37.435,313.307,37.435z       M334.627-21.658c-0.09,0-0.184,0.004-0.275,0.021c-0.361,0.047-0.695,0.194-0.982,0.423c-0.254,0.208-0.455,0.471-0.59,0.779      c-1.303,3.04-3.268,5.597-6.004,7.811c-3.549,2.857-7.799,4.754-12.301,6.762c-4.537,2.022-9.232,4.112-13.189,7.306      c-3.254,2.631-5.602,5.69-7.168,9.348c-0.295,0.692-0.189,1.481,0.277,2.064l17.355,21.481c0.439,0.545,1.127,0.836,1.834,0.727      c0.365-0.049,0.707-0.198,0.99-0.424c0.246-0.201,0.449-0.469,0.58-0.774c1.309-3.043,3.275-5.603,6.012-7.813      c3.541-2.855,7.789-4.749,12.285-6.751c4.564-2.042,9.266-4.143,13.199-7.323c3.258-2.626,5.604-5.685,7.174-9.348      c0.295-0.688,0.189-1.475-0.283-2.058L336.19-20.906C335.809-21.386,335.239-21.658,334.627-21.658z"/>
			</g>
			<g>
				<path fill="#002231" d="M313.313,33.068c7.412-17.278,31.25-13.958,38.67-31.235c-5.748-7.115-11.605-14.371-17.359-21.484      c-7.412,17.281-31.244,13.953-38.668,31.233C301.703,18.696,307.561,25.954,313.313,33.068L313.313,33.068z"/>
				<path fill="#07222F" d="M313.467,34.199l-18.193-22.52l0.141-0.327c3.803-8.854,11.852-12.444,19.637-15.918      c7.928-3.542,15.416-6.885,19.031-15.314l0.385-0.898l0.613,0.76c3.844,4.749,7.729,9.56,11.6,14.35l5.984,7.41l-0.143,0.331      c-3.801,8.85-11.852,12.444-19.633,15.918c-7.93,3.544-15.422,6.887-19.037,15.313L313.467,34.199z M296.639,11.49      l16.531,20.463c3.943-8.212,11.715-11.682,19.236-15.044c7.824-3.493,15.223-6.796,18.893-14.982l-5.539-6.853      c-3.666-4.542-7.348-9.102-10.994-13.609C330.823-10.318,323.051-6.85,315.53-3.49C307.705-0.001,300.309,3.3,296.639,11.49z"/>
			</g>
			<g enable-background="new    ">
				<path fill="#FFFFFF" d="M333.119,6.128l1.297,2.202c0.684,1.158,0.844,2.236,0.477,3.232c-0.365,0.996-1.195,1.876-2.492,2.64      c-0.256,0.151-0.576,0.324-0.963,0.521c-0.387,0.198-0.791,0.399-1.211,0.605c-0.422,0.207-0.83,0.411-1.229,0.613      c-0.395,0.204-0.711,0.374-0.947,0.513c-0.275,0.163-0.504,0.313-0.688,0.451c-0.182,0.14-0.334,0.265-0.453,0.376      c-0.129,0.14-0.234,0.253-0.314,0.342c-0.219-0.059-0.475-0.142-0.764-0.252c-0.291-0.109-0.572-0.22-0.848-0.328      c-0.334-0.116-0.672-0.24-1.014-0.372c0.223-0.61,0.375-1.25,0.455-1.923c0.057-0.575,0.047-1.22-0.029-1.935      c-0.078-0.715-0.33-1.435-0.758-2.161c-0.182-0.31-0.346-0.552-0.488-0.728c-0.143-0.175-0.322-0.376-0.535-0.605l-1.445,0.851      l-0.777-1.321l1.148-0.677c-0.617-0.552-1.213-1.07-1.789-1.554c-0.576-0.482-1.082-1.095-1.52-1.836      c-0.59-0.777-0.924-1.589-1-2.44c-0.027-0.358-0.01-0.744,0.053-1.155c0.061-0.411,0.213-0.828,0.453-1.251      c0.24-0.423,0.588-0.855,1.041-1.3c0.451-0.444,1.041-0.88,1.77-1.309c1.57-0.926,2.99-1.267,4.258-1.025      s2.252,0.958,2.953,2.147l0.996,1.691l-1.178,0.695c-0.373,0.22-0.719,0.352-1.039,0.394c-0.318,0.043-0.609,0.021-0.871-0.064      c-0.262-0.084-0.496-0.224-0.699-0.414c-0.207-0.191-0.383-0.411-0.529-0.659c-0.318-0.54-0.729-0.824-1.234-0.849      c-0.504-0.025-1.031,0.124-1.582,0.448c-0.471,0.278-0.793,0.562-0.967,0.85c-0.174,0.291-0.26,0.549-0.256,0.777      c-0.01,0.255,0.059,0.506,0.205,0.753c0.363,0.618,0.713,1.141,1.045,1.57c0.332,0.429,0.654,0.807,0.965,1.133      c0.312,0.327,0.613,0.624,0.902,0.89s0.584,0.541,0.881,0.822l2.623-1.545l0.779,1.321l-2.387,1.407      c0.232,0.259,0.439,0.511,0.625,0.756c0.184,0.246,0.398,0.577,0.645,0.994c0.41,0.695,0.678,1.408,0.803,2.135      c0.123,0.728,0.166,1.438,0.123,2.129c0.588-0.304,1.199-0.614,1.836-0.926c0.637-0.313,1.102-0.556,1.396-0.729      s0.52-0.432,0.676-0.773s0.143-0.667-0.039-0.976l-0.629-1.066c-0.209-0.355-0.258-0.738-0.143-1.15      c0.115-0.411,0.438-0.772,0.969-1.085L333.119,6.128z"/>
			</g>
		</g>
		<g>
			<g>
				<path fill="#FFFFFF" d="M388.319,34.092c-0.857,0-1.658-0.383-2.199-1.052l-15.443-19.111c-0.658-0.823-0.811-1.936-0.395-2.905      c1.467-3.416,3.654-6.269,6.684-8.722c3.623-2.921,7.863-4.812,11.963-6.64c3.947-1.76,7.674-3.422,10.713-5.871      c2.299-1.861,3.947-4.004,5.041-6.553c0.186-0.422,0.463-0.792,0.826-1.088c0.4-0.325,0.881-0.535,1.385-0.601      c0.131-0.019,0.26-0.026,0.389-0.026c0.863,0,1.668,0.382,2.211,1.057l15.434,19.106c0.66,0.82,0.816,1.936,0.398,2.903      c-1.467,3.416-3.654,6.27-6.686,8.714c-3.604,2.913-7.852,4.813-11.959,6.65c-3.943,1.756-7.666,3.415-10.711,5.869      c-2.303,1.857-3.951,4.001-5.043,6.556c-0.184,0.417-0.471,0.794-0.826,1.086c-0.398,0.321-0.883,0.528-1.393,0.601      C388.578,34.082,388.449,34.092,388.319,34.092L388.319,34.092z"/>
				<path fill="#08222F" d="M388.319,35.141c-1.174,0-2.273-0.525-3.016-1.441l-15.441-19.111c-0.902-1.13-1.111-2.654-0.541-3.981      c1.535-3.576,3.82-6.56,6.986-9.123c3.734-3.012,8.037-4.929,12.199-6.784c3.875-1.729,7.535-3.358,10.477-5.729      c2.166-1.75,3.713-3.763,4.734-6.147c0.258-0.588,0.635-1.088,1.129-1.49c0.561-0.45,1.223-0.737,1.916-0.827      c1.318-0.169,2.703,0.359,3.549,1.415l15.436,19.104c0.906,1.126,1.115,2.649,0.545,3.976c-1.533,3.581-3.822,6.564-6.992,9.119      c-3.711,3.002-8.02,4.927-12.189,6.788c-3.889,1.735-7.547,3.365-10.482,5.732c-2.162,1.747-3.715,3.758-4.738,6.152      c-0.25,0.574-0.637,1.088-1.119,1.483c-0.559,0.449-1.219,0.732-1.92,0.826C388.676,35.128,388.498,35.141,388.319,35.141z       M407.285-17.427c-0.08,0-0.158,0.004-0.242,0.017c-0.32,0.043-0.621,0.174-0.873,0.378c-0.229,0.185-0.406,0.419-0.525,0.692      c-1.158,2.701-2.906,4.977-5.34,6.947c-3.156,2.542-6.941,4.229-10.941,6.015c-4.041,1.798-8.215,3.657-11.734,6.498      c-2.895,2.341-4.982,5.063-6.377,8.316c-0.264,0.613-0.168,1.316,0.244,1.836l15.439,19.108      c0.391,0.482,1.006,0.744,1.631,0.646c0.324-0.044,0.629-0.172,0.883-0.377c0.215-0.18,0.398-0.419,0.514-0.689      c1.16-2.707,2.908-4.984,5.348-6.95c3.146-2.539,6.926-4.222,10.928-6.004c4.061-1.816,8.24-3.686,11.742-6.513      c2.898-2.338,4.982-5.058,6.383-8.315c0.264-0.61,0.164-1.312-0.252-1.831L408.674-16.76      C408.338-17.183,407.828-17.427,407.285-17.427z"/>
			</g>
			<g>
				<path fill="#002231" d="M388.323,31.257c6.596-15.37,27.801-12.417,34.402-27.786c-5.117-6.33-10.324-12.785-15.443-19.113      c-6.594,15.374-27.795,12.414-34.398,27.785C377.998,18.473,383.209,24.927,388.323,31.257L388.323,31.257z"/>
				<path fill="#07222F" d="M388.465,32.263L372.28,12.228l0.127-0.292c3.381-7.872,10.541-11.069,17.467-14.16      c7.053-3.151,13.713-6.125,16.928-13.623l0.344-0.799l0.547,0.677c3.418,4.224,6.873,8.505,10.316,12.765l5.326,6.591      l-0.125,0.29c-3.381,7.874-10.543,11.072-17.469,14.165c-7.053,3.149-13.717,6.125-16.934,13.622L388.465,32.263z       M373.492,12.062l14.709,18.204c3.504-7.306,10.418-10.392,17.111-13.383c6.961-3.107,13.541-6.046,16.807-13.329l-4.926-6.096      c-3.262-4.041-6.539-8.098-9.781-12.107c-3.506,7.309-10.418,10.396-17.111,13.383C383.34,1.839,376.756,4.776,373.492,12.062z"/>
			</g>
			<g enable-background="new    ">
				<path fill="#FFFFFF" d="M405.944,7.289l1.154,1.959c0.607,1.031,0.75,1.989,0.424,2.875c-0.324,0.886-1.064,1.669-2.217,2.349      c-0.229,0.134-0.514,0.289-0.857,0.463c-0.344,0.177-0.703,0.355-1.078,0.539s-0.738,0.365-1.09,0.546      c-0.354,0.179-0.635,0.332-0.846,0.455c-0.244,0.145-0.447,0.278-0.609,0.402c-0.164,0.124-0.297,0.236-0.404,0.335      c-0.115,0.124-0.209,0.225-0.279,0.303c-0.195-0.052-0.422-0.126-0.68-0.224s-0.51-0.195-0.754-0.292      c-0.297-0.103-0.598-0.212-0.902-0.329c0.199-0.542,0.334-1.112,0.404-1.711c0.053-0.512,0.043-1.086-0.025-1.721      c-0.068-0.637-0.293-1.277-0.674-1.923c-0.162-0.274-0.307-0.49-0.434-0.646c-0.129-0.157-0.287-0.336-0.477-0.539l-1.285,0.757      l-0.691-1.176l1.021-0.603c-0.549-0.491-1.08-0.952-1.592-1.382s-0.963-0.975-1.352-1.634c-0.525-0.691-0.822-1.414-0.891-2.171      c-0.023-0.319-0.008-0.662,0.047-1.028c0.055-0.365,0.189-0.737,0.404-1.113c0.213-0.376,0.521-0.761,0.926-1.156      c0.402-0.396,0.926-0.784,1.574-1.165c1.396-0.823,2.66-1.127,3.787-0.913c1.127,0.216,2.004,0.853,2.627,1.911l0.887,1.505      l-1.049,0.618c-0.332,0.196-0.639,0.312-0.924,0.35c-0.283,0.039-0.541,0.02-0.775-0.056c-0.232-0.076-0.439-0.198-0.623-0.37      c-0.184-0.169-0.338-0.365-0.469-0.584c-0.283-0.481-0.648-0.733-1.098-0.756c-0.449-0.022-0.918,0.111-1.408,0.399      c-0.418,0.247-0.705,0.5-0.859,0.757c-0.154,0.258-0.23,0.487-0.229,0.69c-0.008,0.227,0.053,0.451,0.184,0.67      c0.324,0.551,0.633,1.017,0.93,1.397c0.295,0.382,0.58,0.717,0.857,1.008c0.277,0.29,0.545,0.554,0.803,0.791      c0.258,0.238,0.52,0.481,0.785,0.732l2.332-1.375l0.693,1.176l-2.123,1.251c0.205,0.23,0.391,0.454,0.555,0.672      c0.164,0.219,0.355,0.513,0.574,0.884c0.365,0.619,0.602,1.252,0.713,1.9c0.111,0.646,0.148,1.279,0.111,1.893      c0.521-0.27,1.066-0.546,1.633-0.824c0.564-0.277,0.98-0.494,1.242-0.648c0.262-0.155,0.463-0.384,0.602-0.688      c0.139-0.304,0.127-0.594-0.035-0.869l-0.561-0.948c-0.186-0.316-0.229-0.658-0.125-1.023c0.102-0.367,0.389-0.688,0.861-0.967      L405.944,7.289z"/>
			</g>
		</g>
	</g>
</g>
<g id="Layer_5" display="none">
	<g display="inline">
		<path fill="#FFC127" d="M225.451,100.368c6.802,0,12.339-5.535,12.339-12.338c0-6.793-5.537-12.321-12.339-12.321    c-6.801,0-12.332,5.526-12.332,12.321C213.12,94.833,218.651,100.368,225.451,100.368z"/>
		<path fill="#FFC127" d="M101.094,17.697c6.802,0,12.338-5.535,12.338-12.338c0-6.793-5.537-12.321-12.338-12.321    c-6.801,0-12.332,5.526-12.332,12.321C88.762,12.162,94.293,17.697,101.094,17.697z"/>
		<path fill="#FFC127" d="M142.348-72.159c7.884,0,14.301-6.416,14.301-14.301c0-7.874-6.417-14.281-14.301-14.281    c-7.882,0-14.293,6.406-14.293,14.281C128.055-78.574,134.466-72.159,142.348-72.159z"/>
		<path fill="#FFC127" d="M238.555,12.867c18.963,0,34.398-15.431,34.398-34.398c0-18.939-15.436-34.351-34.398-34.351    c-18.959,0-34.378,15.408-34.378,34.351C204.177-2.564,219.596,12.867,238.555,12.867z"/>
		<path fill="#FFC127" d="M363.902,45.036c7.884,0,14.301-6.416,14.301-14.301c0-7.874-6.417-14.281-14.301-14.281    c-7.883,0-14.293,6.406-14.293,14.281C349.609,38.62,356.019,45.036,363.902,45.036z"/>
		<polygon fill="#28A3DC" points="149.606,125.232 124.208,148.589 142.353,166.899 147.948,175.69 146.295,191.881     147.948,208.748 235.055,257.343 320.615,210.772 320.615,169.6 342.496,156.775 311.844,125.232 235.055,163.526 158.65,122.353       "/>
		<g>
			<path fill="#08222F" d="M212.442,88.406c0.194,7.17,6.201,12.845,13.375,12.647s12.849-6.197,12.651-13.367     c-0.197-7.186-6.193-12.865-13.363-12.663C217.927,75.213,212.24,81.224,212.442,88.406z M234.443,86.354v2.63h-7.788v7.728     h-2.99v-7.728h-7.328v-2.63h7.328v-7.755h2.99v7.755H234.443z"/>
			<path fill="#08222F" d="M217.231,135.526c-10.029-33.604-27.465-66.732-53.5-90.706c-6.315-5.817-13.248-11.16-20.952-15.008     c-6.252-3.125-14.229-5.96-21.158-3.445c-7.375,2.677-10.808,11.184-7.996,18.346c2.717,6.937,8.467,7.534,14.83,8.633     C169.858,60.47,200.594,99.475,217.231,135.526z"/>
			<path fill="#08222F" d="M242.802,125.232c3.773-35.26,22.685-69.374,46.48-92.105c13.703-13.094,29.771-23.013,46.717-29.882     c5.046-2.049,9.867-4.196,11.346-10.721c0.831-3.694-0.17-8.064-2.246-11.05c-2.705-3.919-7.138-4.516-11.278-4.105     c0.039-0.004,0.047-0.008-0.067,0.004c-0.202,0.024-0.135,0.016-0.044,0.008c-12.896,1.38-24.859,10.314-34.719,19.042     c-10.479,9.459-19.524,20.865-27.077,33.307C254.813,57.927,245.547,91.399,242.802,125.232z"/>
			<path fill="#08222F" d="M100.705-7.484c-7.17,0.193-12.856,6.201-12.659,13.387c0.198,7.166,6.201,12.845,13.378,12.647     c7.17-0.202,12.845-6.197,12.647-13.371C113.871-2.007,107.879-7.682,100.705-7.484z M110.047,6.48h-7.787v7.728h-2.982V6.48     h-7.332V3.842h7.332v-7.751h2.982v7.751h7.787V6.48z"/>
			<path fill="#08222F" d="M363.682,14.935c-8.843,0-16.044,7.213-16.044,16.068c0,8.839,7.201,16.033,16.044,16.033     c8.847,0,16.037-7.194,16.037-16.033C379.719,22.145,372.529,14.935,363.682,14.935z M365.565,33.146v9.903h-4.334v-9.903h-9.551     v-4.145h9.551v-9.974h4.338v9.974h10.124v4.145H365.565z"/>
			<path fill="#08222F" d="M173.116,12.4C173.223,10.419,172.836,17.09,173.116,12.4L173.116,12.4z"/>
			<path fill="#08222F" d="M312.535,47.154c-9.475,5.299-17.717,13.129-24.922,21.296c-16.883,19.125-29.119,42.656-36.93,67.227     c10.081-21.296,25.295-41.454,44.075-55.18c10.437-7.605,22.42-12.995,35.237-14.498c3.757-0.447,7.023-0.74,9.696-3.848     c4.152-4.84,3.512-12.251-0.708-16.891C331.981,37.544,319.678,43.164,312.535,47.154z"/>
			<path fill="#08222F" d="M338.985,45.26C344.522,51.366,338.365,44.572,338.985,45.26L338.985,45.26z"/>
			<path fill="#08222F" d="M119.708-15.417c2.183,0.7,4.758,1.325,7.209,1.934h-0.036c0,0,23.843,6.565,36.344,23.574     c0.494,0.724,1,1.439,1.447,2.143c0.202,0.316,0.396,0.621,0.589,0.945c2.555,4.073,4.386,7.791,5.113,10.073     c0.241,0.498,0.392,0.799,0.392,0.799s1.637-1.277-1.139-9.38c-0.083-0.241-0.198-0.479-0.281-0.716l0.016-0.028     c0,0-4.457-19.58-28.348-35.462c-2.29-1.629-4.678-3.172-7.32-4.54c-1.036-0.546-2.12-1.06-3.243-1.535     c-0.028-0.016-0.055-0.04-0.099-0.055l0.004,0.016c-2.871-1.218-5.916-2.143-8.977-2.135c-4.544,0.023-8.21,3.891-7.106,8.613     C114.891-18.443,117.07-16.26,119.708-15.417z"/>
			<path fill="#08222F" d="M149.542-53.988c-5.877,3.298-8.926,10.591-6.157,16.863c1.783,4.03,5.093,5.402,8.858,7.095     c12.861,5.75,23.605,15.162,32.025,26.303c15.143,20.09,24.511,45.515,28.169,70.398c-0.246-27.446-5.43-55.307-16.863-80.233     c-4.884-10.642-10.942-21.292-19.105-29.779C170.308-49.74,159.306-59.489,149.542-53.988z"/>
			<path fill="#08222F" d="M149.542-53.988C150.408-54.482,141.819-49.633,149.542-53.988L149.542-53.988z"/>
			<path fill="#08222F" d="M142.614-70.4c8.847,0,16.037-7.193,16.037-16.032c0-8.858-7.19-16.068-16.037-16.068     c-8.843,0-16.044,7.213-16.044,16.068C126.57-77.593,133.771-70.4,142.614-70.4z M130.611-88.433h9.551v-9.974h4.338v9.974     h10.124v4.145h-10.128v9.902h-4.334v-9.902h-9.551V-88.433z"/>
			<path fill="#08222F" d="M320.117,120.53l-4.553-3.864c1.061,0.016,16.294,0.246,25.824,0.309     c4.489,0.032,2.631-2.472-1.083-4.342S296.59,90.715,296.59,90.715s-14.082,8.451-13.734,8.625l32.104,17.057l-9.211,5.505     l-71.022,37.704c-0.04,0.02-0.075,0.04-0.095,0.063c-0.063-0.024-0.115-0.079-0.182-0.119l-69.148-36.522l-12.505-6.521     l34.137-17.82c0.348-0.174-11.947-9.511-11.947-9.511s-43.613,21.584-47.326,23.455s-5.572,4.374-1.083,4.342     c8.834-0.059,22.573-0.261,25.381-0.304l-32.678,28.826c-5.105,5.102-3.282,15.079,3.18,18.144l17.167,9.349l0.119,30.222     c0.004,7.897,4.928,15.933,11.955,19.528l72.324,37.04c3.097,1.586,6.751,2.432,10.555,2.424c2.808,0,7.008-0.471,11.085-2.685     l71.497-38.812c6.858-3.718,11.596-11.753,11.564-19.544l-0.017-27.454l20.834-11.192c5.939-3.385,5.03-11.097,0.953-15.178     L320.117,120.53z M132.399,153.018l25.856-23.194c0.455-0.403,2.191-0.759,2.946-0.348l68.033,36.886l-26.655,22.921     c-0.475,0.411-2.306,0.759-3.069,0.336L132.399,153.018z M314.636,201.242c0.008,2.63-1.871,5.829-4.188,7.087l-71.517,38.812     c-1.19,0.648-2.776,0.969-4.351,0.973c-1.495,0-2.986-0.293-4.128-0.862l-72.328-37.063c-2.345-1.207-4.259-4.346-4.259-6.976     l-0.016-26.9c0-0.696-0.162-1.439-0.403-2.167l17.077,9.293l24.946,13.597c1.502,0.838,3.306,1.281,5.204,1.273     c2.796,0.008,5.505-0.949,7.427-2.598l26.409-22.72l26.402,22.985c1.926,1.681,4.643,2.646,7.438,2.646     c1.887-0.004,3.689-0.431,5.185-1.261l41.374-22.597c-0.245,0.735-0.388,1.483-0.38,2.175L314.636,201.242z M269.477,189.931     c-0.253,0.139-0.68,0.222-1.123,0.222c-0.851,0.004-1.574-0.285-1.887-0.554l-26.571-23.151l67.515-36.071     c0.764-0.408,2.551-0.04,3.01,0.364l25.709,22.791L269.477,189.931z"/>
		</g>
		<path fill="#08222F" d="M238.555,12.867c18.963,0,34.398-15.431,34.398-34.398c0-18.939-15.436-34.351-34.398-34.351    c-18.959,0-34.378,15.408-34.378,34.351C204.177-2.564,219.596,12.867,238.555,12.867z M214.344-25.608h19.283v-20.106h8.229    v20.106h20.929v8.229h-20.929V2.727h-8.229v-20.106h-19.283V-25.608z"/>
	</g>
</g>
<g id="Layer_6">
	<g>
		<g>
			<path fill="#FFFFFF" d="M317.536,45.716c0,0-86.711-31.814-203.508,0c0,0-23.829,135.624,101.742,200.985     C215.77,246.702,333.14,200.376,317.536,45.716z"/>
			<path fill="#002130" d="M218.699,31.577c60.292,0,98.837,14.14,98.837,14.14C333.14,200.376,215.77,246.702,215.77,246.702     C90.199,181.34,114.028,45.716,114.028,45.716C152.965,35.11,188.548,31.577,218.699,31.577 M218.699,19.577     c-36.075,0-72.353,4.899-107.825,14.562l-7.347,2.001l-1.318,7.5c-0.261,1.483-6.263,36.815,3.91,80.765     c6.005,25.946,16.424,49.574,30.967,70.228c18.174,25.811,42.783,46.911,73.143,62.714l4.855,2.527l5.091-2.009     c1.308-0.516,32.347-13.012,61.311-45.699c16.974-19.155,29.793-41.347,38.102-65.958c10.294-30.488,13.621-64.703,9.889-101.694     l-0.754-7.474l-7.053-2.587C320.014,33.843,280.414,19.577,218.699,19.577L218.699,19.577z"/>
		</g>
		<path fill="#002130" d="M302.31,57.052l-0.208-3.246l-3.842,0.403c-11.246,1.253-41.818,4.178-82.811,4.178    c-40.784,0-71.448-2.915-82.74-4.168l-3.923-0.408l-0.21,3.246c-0.352,5.559-0.525,11.25-0.525,17.401    c0,110.561,71.764,147.264,86.154,153.5l1.244,0.54l1.242-0.54c14.395-6.232,86.193-42.915,86.193-153.5    C302.885,68.792,302.692,62.938,302.31,57.052z"/>
		<g>
			<polygon fill="#FFFFFF" points="200.703,75.487 228.646,163.684 203.749,163.684 192.923,114.421 185.402,163.684      163.929,163.684 177.988,75.487    "/>
			<polygon fill="#FFFFFF" points="254.158,75.487 231.783,75.487 218.791,114.11 230.832,151.868 238.49,114.421 245.634,163.684      266.999,163.684    "/>
		</g>
		<g>
			<path fill="#08222F" d="M352.281,37.695v2.394h-3.763v10.08h-2.808v-10.08h-3.762v-2.394H352.281z"/>
			<path fill="#08222F" d="M357.213,37.695c0.217,0.396,0.466,0.885,0.749,1.467c0.282,0.582,0.577,1.212,0.884,1.89     c0.308,0.678,0.611,1.371,0.912,2.079c0.301,0.708,0.583,1.375,0.848,1.998c0.265-0.624,0.548-1.29,0.849-1.998     c0.301-0.708,0.604-1.401,0.911-2.079c0.307-0.678,0.602-1.308,0.885-1.89c0.282-0.582,0.532-1.071,0.749-1.467h2.556     c0.12,0.828,0.231,1.755,0.333,2.781c0.103,1.026,0.192,2.094,0.271,3.204s0.149,2.223,0.216,3.339     c0.065,1.116,0.123,2.166,0.171,3.15h-2.736c-0.036-1.212-0.084-2.532-0.144-3.96c-0.061-1.428-0.15-2.868-0.271-4.32     c-0.217,0.504-0.457,1.062-0.722,1.674s-0.527,1.224-0.786,1.836s-0.508,1.197-0.749,1.755c-0.24,0.558-0.445,1.035-0.613,1.431     h-1.963c-0.168-0.396-0.373-0.873-0.613-1.431c-0.241-0.558-0.491-1.143-0.75-1.755s-0.521-1.224-0.785-1.836     s-0.506-1.17-0.722-1.674c-0.12,1.452-0.211,2.892-0.271,4.32c-0.061,1.428-0.108,2.748-0.144,3.96h-2.736     c0.048-0.984,0.104-2.034,0.171-3.15c0.065-1.116,0.138-2.229,0.216-3.339s0.168-2.178,0.271-3.204     c0.102-1.026,0.213-1.953,0.333-2.781H357.213z"/>
		</g>
	</g>
</g>
<g id="Layer_7">
</g>
</svg>